<?xml version="1.0" encoding="UTF-8" ?>
<svg width="232792560" height="382928412.45280975" viewBox="0 0 232792560 382928412.45280975" xmlns="http://www.w3.org/2000/svg">
        <rect x="0" y="0" width="232792560" height="232792560" fill="#0f0"/>
        <text x="116396280" y="117851233.5" alignment-baseline="middle" font-size="5819814" text-anchor="middle">1</text>
    
        <rect x="0" y="232792560" width="116396280" height="116396280" fill="#00f"/>
        <text x="58198140" y="292445653.5" alignment-baseline="middle" font-size="5819814" text-anchor="middle">2</text>
    
        <rect x="116396280" y="232792560" width="77597520" height="77597520" fill="#f00"/>
        <text x="155195040" y="273046273.5" alignment-baseline="middle" font-size="5819814" text-anchor="middle">3</text>
    
        <rect x="116396280" y="310390080" width="58198140" height="58198140" fill="#ff0"/>
        <text x="145495350" y="340944103.5" alignment-baseline="middle" font-size="5819814" text-anchor="middle">4</text>
    
        <rect x="174594420" y="310390080" width="46558512" height="46558512" fill="#0ff"/>
        <text x="197873676" y="335124289.5" alignment-baseline="middle" font-size="5819814" text-anchor="middle">5</text>
    
        <rect x="193993800" y="232792560" width="38798760" height="38798760" fill="#f0f"/>
        <text x="213393180" y="253646893.5" alignment-baseline="middle" font-size="5819814" text-anchor="middle">6</text>
    
        <rect x="193993800" y="271591320" width="33256080" height="33256080" fill="#080"/>
        <text x="210621840" y="289674313.5" alignment-baseline="middle" font-size="5819814" text-anchor="middle">7</text>
    
        <rect x="0" y="349188840" width="29099070" height="29099070" fill="#080"/>
        <text x="14549535" y="365193328.5" alignment-baseline="middle" font-size="5819814" text-anchor="middle">8</text>
    
        <rect x="29099070" y="349188840" width="25865840" height="25865840" fill="#800"/>
        <text x="42031990" y="363576713.5" alignment-baseline="middle" font-size="5819814" text-anchor="middle">9</text>
    
        <rect x="54964910" y="349188840" width="23279256" height="23279256" fill="#008"/>
        <text x="66604538" y="362283421.5" alignment-baseline="middle" font-size="5819814" text-anchor="middle">10</text>
    
        <rect x="78244166" y="349188840" width="21162960" height="21162960" fill="#088"/>
        <text x="88825646" y="361225273.5" alignment-baseline="middle" font-size="5819814" text-anchor="middle">11</text>
    
        <rect x="174594420" y="356948592" width="19399380" height="19399380" fill="#880"/>
        <text x="184294110" y="368103235.5" alignment-baseline="middle" font-size="5819814" text-anchor="middle">12</text>
    
        <rect x="193993800" y="356948592" width="17907120" height="17907120" fill="#808"/>
        <text x="202947360" y="367357105.5" alignment-baseline="middle" font-size="5819814" text-anchor="middle">13</text>
    
        <rect x="99407126" y="349188840" width="16628040" height="16628040" fill="#f80"/>
        <text x="107721146" y="358957813.5" alignment-baseline="middle" font-size="5819814" text-anchor="middle">14</text>
    
        <rect x="99407126" y="365816880" width="15519504" height="15519504" fill="#f08"/>
        <text x="107166878" y="375031585.5" alignment-baseline="middle" font-size="5819814" text-anchor="middle">15</text>
    
        <rect x="211900920" y="356948592" width="14549535" height="14549535" fill="#8f0"/>
        <text x="219175687.5" y="365678313" alignment-baseline="middle" font-size="5819814" text-anchor="middle">16</text>
    
        <rect x="114926630" y="368588220" width="13693680" height="13693680" fill="#0f8"/>
        <text x="121773470" y="376890013.5" alignment-baseline="middle" font-size="5819814" text-anchor="middle">17</text>
    
        <rect x="128620310" y="368588220" width="12932920" height="12932920" fill="#80f"/>
        <text x="135086770" y="376509633.5" alignment-baseline="middle" font-size="5819814" text-anchor="middle">18</text>
    
        <rect x="141553230" y="368588220" width="12252240" height="12252240" fill="#08f"/>
        <text x="147679350" y="376169293.5" alignment-baseline="middle" font-size="5819814" text-anchor="middle">19</text>
    
        <rect x="153805470" y="368588220" width="11639628" height="11639628" fill="#f88"/>
        <text x="159625284" y="375862987.5" alignment-baseline="middle" font-size="5819814" text-anchor="middle">20</text>
    </svg>