<svg xmlns="http://www.w3.org/2000/svg" width="1000" height="1644.9340668482262" viewBox="0 0 2520 4145.23384845753">
        <rect x="0" y="0" width="2520" height="2520" fill="#0f0"/>
        <text x="1260" y="1275.75" alignment-baseline="middle" font-size="63" text-anchor="middle">1</text>
    
        <rect x="0" y="2520" width="1260" height="1260" fill="#00f"/>
        <text x="630" y="3165.75" alignment-baseline="middle" font-size="63" text-anchor="middle">2</text>
    
        <rect x="1260" y="2520" width="840" height="840" fill="#f00"/>
        <text x="1680" y="2955.75" alignment-baseline="middle" font-size="63" text-anchor="middle">3</text>
    
        <rect x="1260" y="3360" width="630" height="630" fill="#ff0"/>
        <text x="1575" y="3690.75" alignment-baseline="middle" font-size="63" text-anchor="middle">4</text>
    
        <rect x="1890" y="3360" width="504" height="504" fill="#0ff"/>
        <text x="2142" y="3627.75" alignment-baseline="middle" font-size="63" text-anchor="middle">5</text>
    
        <rect x="2100" y="2520" width="420" height="420" fill="#f0f"/>
        <text x="2310" y="2745.75" alignment-baseline="middle" font-size="63" text-anchor="middle">6</text>
    
        <rect x="0" y="3780" width="360" height="360" fill="#080"/>
        <text x="180" y="3975.75" alignment-baseline="middle" font-size="63" text-anchor="middle">7</text>
    
        <rect x="360" y="3780" width="315" height="315" fill="#800"/>
        <text x="517.5" y="3953.25" alignment-baseline="middle" font-size="63" text-anchor="middle">8</text>
    
        <rect x="675" y="3780" width="280" height="280" fill="#008"/>
        <text x="815" y="3935.75" alignment-baseline="middle" font-size="63" text-anchor="middle">9</text>
    
        <rect x="955" y="3780" width="252" height="252" fill="#088"/>
        <text x="1081" y="3921.75" alignment-baseline="middle" font-size="63" text-anchor="middle">10</text>
    </svg>